<svg id="Layer_1" data-name="Layer 1" xmlns="http://www.w3.org/2000/svg" viewBox="0 0 1080 1080"><defs><style>.cls-1{fill:#231f20;}.cls-2{fill:#fff;}</style></defs><rect class="cls-1" width="1080" height="1080"/><path class="cls-2" d="M448.87,364.84,447.08,366l-1.78,1.14-1.77,1.16-1.77,1.16C388.89,404.35,346.47,447.19,312.55,492s-59.32,91.45-78.19,134.13a767.39,767.39,0,0,0-38.93,110c-7.73,28.68-10.85,47.42-11.29,50.24l44.07,5.47c.11-.64,2.89-17.06,10-43.33A743.69,743.69,0,0,1,274.39,646c17.54-40,41.13-84,72.45-126s70.45-81.94,119-113.93l1.52-1,1.52-1,1.53-1,1.53-1a427.71,427.71,0,0,1,89.32-43.08A469.26,469.26,0,0,1,661,336.57,581.14,581.14,0,0,1,771,334.64a775.36,775.36,0,0,1,119.81,18.78c-15.5,45.17-30.71,86.83-46.08,124.71s-30.87,72-47,102-32.75,56-50.43,77.63S711,696.67,690.85,709.37c-2.31,1.46-4.65,2.86-7,4.2s-4.73,2.61-7.13,3.83-4.81,2.37-7.25,3.46-4.9,2.12-7.37,3.09a164.1,164.1,0,0,1-48.82,10.7A218.14,218.14,0,0,1,558.33,731a341.93,341.93,0,0,1-61.43-18.13,569.1,569.1,0,0,1-68.29-32.64c5.72-16.45,11.89-32.52,18.74-47.88a367,367,0,0,1,22.79-43.62,240.18,240.18,0,0,1,28.17-37.4,177.28,177.28,0,0,1,34.88-29.24,161.71,161.71,0,0,1,34-16.32,179.82,179.82,0,0,1,39.95-8.67,236.1,236.1,0,0,1,46.6,0,322.36,322.36,0,0,1,33.81,5.08,22.54,22.54,0,0,0,26.18-15.57h0a22.55,22.55,0,0,0-17.36-28.51,362,362,0,0,0-36.09-5.3,283.74,283.74,0,0,0-55.21-.08,226.62,226.62,0,0,0-50,10.63,205.75,205.75,0,0,0-44.71,21.3q-3.52,2.24-7,4.61c-2.3,1.59-4.56,3.22-6.81,4.91s-4.46,3.42-6.65,5.21-4.36,3.61-6.5,5.5a257.27,257.27,0,0,0-36.76,40.48,349.29,349.29,0,0,0-28.4,45.92,503.6,503.6,0,0,0-21.59,47.67c-6.23,15.77-11.58,31.22-16.32,45.74l-5.45,16.74,14.85,8.71q43.22,25.32,82.53,41.39t75.09,23q35.77,6.87,68.15,4.59a209.65,209.65,0,0,0,61.7-13.67q4.95-1.93,9.77-4.08t9.53-4.54q4.71-2.37,9.31-5t9.1-5.44c23.74-15,45.39-34.7,65.61-59.11s39-53.5,57-87.17,35.2-72,52.26-114.71,34-90,51.41-141.7l7.48-22.21-22.33-5.79q-70.8-18.37-136.26-24.46t-125.23.11A517.2,517.2,0,0,0,551,315.88a475.31,475.31,0,0,0-102.14,49"/></svg>